<mxfile host="app.diagrams.net" modified="2021-09-19T12:57:57.559Z" agent="5.0 (Windows NT 10.0; Win64; x64) AppleWebKit/537.36 (KHTML, like Gecko) Chrome/93.0.4577.82 Safari/537.36" etag="cZOPzsdazvRKGCeYGC1P" version="15.2.9" type="github">
  <diagram id="C5RBs43oDa-KdzZeNtuy" name="Page-1">
    <mxGraphModel dx="782" dy="436" grid="1" gridSize="10" guides="1" tooltips="1" connect="1" arrows="1" fold="1" page="1" pageScale="1" pageWidth="827" pageHeight="1169" math="0" shadow="0">
      <root>
        <mxCell id="WIyWlLk6GJQsqaUBKTNV-0" />
        <mxCell id="WIyWlLk6GJQsqaUBKTNV-1" parent="WIyWlLk6GJQsqaUBKTNV-0" />
        <mxCell id="W8uSDttFcf_VpxIEdMb7-1" value="Початок роботи&amp;nbsp;" style="rounded=0;whiteSpace=wrap;html=1;" vertex="1" parent="WIyWlLk6GJQsqaUBKTNV-1">
          <mxGeometry x="354" width="120" height="60" as="geometry" />
        </mxCell>
        <mxCell id="W8uSDttFcf_VpxIEdMb7-2" value="" style="endArrow=classic;html=1;" edge="1" parent="WIyWlLk6GJQsqaUBKTNV-1">
          <mxGeometry width="50" height="50" relative="1" as="geometry">
            <mxPoint x="414" y="60" as="sourcePoint" />
            <mxPoint x="414" y="100" as="targetPoint" />
          </mxGeometry>
        </mxCell>
        <mxCell id="W8uSDttFcf_VpxIEdMb7-6" value="a" style="shape=parallelogram;perimeter=parallelogramPerimeter;whiteSpace=wrap;html=1;fixedSize=1;" vertex="1" parent="WIyWlLk6GJQsqaUBKTNV-1">
          <mxGeometry x="354" y="100" width="120" height="40" as="geometry" />
        </mxCell>
        <mxCell id="W8uSDttFcf_VpxIEdMb7-9" value="" style="endArrow=classic;html=1;" edge="1" parent="WIyWlLk6GJQsqaUBKTNV-1">
          <mxGeometry width="50" height="50" relative="1" as="geometry">
            <mxPoint x="413" y="300" as="sourcePoint" />
            <mxPoint x="413" y="340" as="targetPoint" />
          </mxGeometry>
        </mxCell>
        <mxCell id="W8uSDttFcf_VpxIEdMb7-10" value="" style="endArrow=classic;html=1;" edge="1" parent="WIyWlLk6GJQsqaUBKTNV-1">
          <mxGeometry width="50" height="50" relative="1" as="geometry">
            <mxPoint x="413" y="220" as="sourcePoint" />
            <mxPoint x="413" y="260" as="targetPoint" />
          </mxGeometry>
        </mxCell>
        <mxCell id="W8uSDttFcf_VpxIEdMb7-11" value="" style="endArrow=classic;html=1;" edge="1" parent="WIyWlLk6GJQsqaUBKTNV-1">
          <mxGeometry width="50" height="50" relative="1" as="geometry">
            <mxPoint x="414" y="140" as="sourcePoint" />
            <mxPoint x="414" y="180" as="targetPoint" />
          </mxGeometry>
        </mxCell>
        <mxCell id="W8uSDttFcf_VpxIEdMb7-12" value="x" style="shape=parallelogram;perimeter=parallelogramPerimeter;whiteSpace=wrap;html=1;fixedSize=1;" vertex="1" parent="WIyWlLk6GJQsqaUBKTNV-1">
          <mxGeometry x="354" y="340" width="120" height="40" as="geometry" />
        </mxCell>
        <mxCell id="W8uSDttFcf_VpxIEdMb7-13" value="c" style="shape=parallelogram;perimeter=parallelogramPerimeter;whiteSpace=wrap;html=1;fixedSize=1;" vertex="1" parent="WIyWlLk6GJQsqaUBKTNV-1">
          <mxGeometry x="354" y="260" width="120" height="40" as="geometry" />
        </mxCell>
        <mxCell id="W8uSDttFcf_VpxIEdMb7-14" value="b" style="shape=parallelogram;perimeter=parallelogramPerimeter;whiteSpace=wrap;html=1;fixedSize=1;" vertex="1" parent="WIyWlLk6GJQsqaUBKTNV-1">
          <mxGeometry x="354" y="180" width="120" height="40" as="geometry" />
        </mxCell>
        <mxCell id="W8uSDttFcf_VpxIEdMb7-15" value="" style="endArrow=classic;html=1;" edge="1" parent="WIyWlLk6GJQsqaUBKTNV-1">
          <mxGeometry width="50" height="50" relative="1" as="geometry">
            <mxPoint x="414" y="380" as="sourcePoint" />
            <mxPoint x="414" y="410" as="targetPoint" />
          </mxGeometry>
        </mxCell>
        <mxCell id="W8uSDttFcf_VpxIEdMb7-16" value="F =&amp;nbsp;" style="strokeWidth=1;html=1;shape=mxgraph.flowchart.terminator;whiteSpace=wrap;" vertex="1" parent="WIyWlLk6GJQsqaUBKTNV-1">
          <mxGeometry x="364" y="410" width="100" height="40" as="geometry" />
        </mxCell>
        <mxCell id="W8uSDttFcf_VpxIEdMb7-17" value="x&amp;lt;5 &amp;amp;&amp;amp; c!=0" style="rhombus;whiteSpace=wrap;html=1;" vertex="1" parent="WIyWlLk6GJQsqaUBKTNV-1">
          <mxGeometry x="354" y="480" width="120" height="65" as="geometry" />
        </mxCell>
        <mxCell id="W8uSDttFcf_VpxIEdMb7-18" value="" style="endArrow=classic;html=1;" edge="1" parent="WIyWlLk6GJQsqaUBKTNV-1">
          <mxGeometry width="50" height="50" relative="1" as="geometry">
            <mxPoint x="414" y="450" as="sourcePoint" />
            <mxPoint x="414" y="480" as="targetPoint" />
          </mxGeometry>
        </mxCell>
        <mxCell id="W8uSDttFcf_VpxIEdMb7-21" value="" style="endArrow=none;html=1;" edge="1" parent="WIyWlLk6GJQsqaUBKTNV-1">
          <mxGeometry width="50" height="50" relative="1" as="geometry">
            <mxPoint x="280" y="512" as="sourcePoint" />
            <mxPoint x="354" y="512" as="targetPoint" />
          </mxGeometry>
        </mxCell>
        <mxCell id="W8uSDttFcf_VpxIEdMb7-22" value="" style="endArrow=none;html=1;" edge="1" parent="WIyWlLk6GJQsqaUBKTNV-1">
          <mxGeometry width="50" height="50" relative="1" as="geometry">
            <mxPoint x="280" y="611" as="sourcePoint" />
            <mxPoint x="280" y="510" as="targetPoint" />
          </mxGeometry>
        </mxCell>
        <mxCell id="W8uSDttFcf_VpxIEdMb7-23" value="" style="endArrow=none;html=1;" edge="1" parent="WIyWlLk6GJQsqaUBKTNV-1">
          <mxGeometry width="50" height="50" relative="1" as="geometry">
            <mxPoint x="474" y="512" as="sourcePoint" />
            <mxPoint x="560" y="513" as="targetPoint" />
          </mxGeometry>
        </mxCell>
        <mxCell id="W8uSDttFcf_VpxIEdMb7-24" value="" style="endArrow=classic;html=1;" edge="1" parent="WIyWlLk6GJQsqaUBKTNV-1">
          <mxGeometry width="50" height="50" relative="1" as="geometry">
            <mxPoint x="559.5" y="512" as="sourcePoint" />
            <mxPoint x="559.5" y="555" as="targetPoint" />
          </mxGeometry>
        </mxCell>
        <mxCell id="W8uSDttFcf_VpxIEdMb7-25" value="-a*(x*x) -b" style="rounded=0;whiteSpace=wrap;html=1;" vertex="1" parent="WIyWlLk6GJQsqaUBKTNV-1">
          <mxGeometry x="520" y="555" width="120" height="35" as="geometry" />
        </mxCell>
        <mxCell id="W8uSDttFcf_VpxIEdMb7-26" value="" style="endArrow=none;html=1;" edge="1" parent="WIyWlLk6GJQsqaUBKTNV-1">
          <mxGeometry width="50" height="50" relative="1" as="geometry">
            <mxPoint x="280" y="610" as="sourcePoint" />
            <mxPoint x="560" y="610" as="targetPoint" />
          </mxGeometry>
        </mxCell>
        <mxCell id="W8uSDttFcf_VpxIEdMb7-27" value="" style="endArrow=none;html=1;" edge="1" parent="WIyWlLk6GJQsqaUBKTNV-1">
          <mxGeometry width="50" height="50" relative="1" as="geometry">
            <mxPoint x="560" y="610" as="sourcePoint" />
            <mxPoint x="560" y="590" as="targetPoint" />
          </mxGeometry>
        </mxCell>
        <mxCell id="W8uSDttFcf_VpxIEdMb7-28" value="" style="shape=image;html=1;verticalAlign=top;verticalLabelPosition=bottom;labelBackgroundColor=#ffffff;imageAspect=0;aspect=fixed;image=https://cdn4.iconfinder.com/data/icons/wirecons-free-vector-icons/32/add-128.png" vertex="1" parent="WIyWlLk6GJQsqaUBKTNV-1">
          <mxGeometry x="474" y="500" width="10" height="10" as="geometry" />
        </mxCell>
        <mxCell id="W8uSDttFcf_VpxIEdMb7-30" value="" style="shape=image;html=1;verticalAlign=top;verticalLabelPosition=bottom;labelBackgroundColor=#ffffff;imageAspect=0;aspect=fixed;image=https://cdn4.iconfinder.com/data/icons/ionicons/512/icon-minus-128.png" vertex="1" parent="WIyWlLk6GJQsqaUBKTNV-1">
          <mxGeometry x="340" y="500" width="8" height="8" as="geometry" />
        </mxCell>
        <mxCell id="W8uSDttFcf_VpxIEdMb7-31" value="" style="endArrow=classic;html=1;" edge="1" parent="WIyWlLk6GJQsqaUBKTNV-1">
          <mxGeometry width="50" height="50" relative="1" as="geometry">
            <mxPoint x="414" y="770" as="sourcePoint" />
            <mxPoint x="414" y="800" as="targetPoint" />
          </mxGeometry>
        </mxCell>
        <mxCell id="W8uSDttFcf_VpxIEdMb7-32" value="" style="endArrow=classic;html=1;" edge="1" parent="WIyWlLk6GJQsqaUBKTNV-1">
          <mxGeometry width="50" height="50" relative="1" as="geometry">
            <mxPoint x="414" y="610" as="sourcePoint" />
            <mxPoint x="414" y="640" as="targetPoint" />
          </mxGeometry>
        </mxCell>
        <mxCell id="W8uSDttFcf_VpxIEdMb7-33" value="x&amp;gt;5 &amp;amp;&amp;amp; c==0" style="rhombus;whiteSpace=wrap;html=1;" vertex="1" parent="WIyWlLk6GJQsqaUBKTNV-1">
          <mxGeometry x="354" y="640" width="120" height="65" as="geometry" />
        </mxCell>
        <mxCell id="W8uSDttFcf_VpxIEdMb7-34" value="" style="endArrow=none;html=1;" edge="1" parent="WIyWlLk6GJQsqaUBKTNV-1">
          <mxGeometry width="50" height="50" relative="1" as="geometry">
            <mxPoint x="280" y="672" as="sourcePoint" />
            <mxPoint x="354" y="672" as="targetPoint" />
          </mxGeometry>
        </mxCell>
        <mxCell id="W8uSDttFcf_VpxIEdMb7-35" value="" style="endArrow=none;html=1;" edge="1" parent="WIyWlLk6GJQsqaUBKTNV-1">
          <mxGeometry width="50" height="50" relative="1" as="geometry">
            <mxPoint x="280" y="770" as="sourcePoint" />
            <mxPoint x="280" y="670" as="targetPoint" />
          </mxGeometry>
        </mxCell>
        <mxCell id="W8uSDttFcf_VpxIEdMb7-36" value="" style="endArrow=none;html=1;" edge="1" parent="WIyWlLk6GJQsqaUBKTNV-1">
          <mxGeometry width="50" height="50" relative="1" as="geometry">
            <mxPoint x="280" y="770" as="sourcePoint" />
            <mxPoint x="560" y="770" as="targetPoint" />
          </mxGeometry>
        </mxCell>
        <mxCell id="W8uSDttFcf_VpxIEdMb7-37" value="" style="endArrow=none;html=1;" edge="1" parent="WIyWlLk6GJQsqaUBKTNV-1">
          <mxGeometry width="50" height="50" relative="1" as="geometry">
            <mxPoint x="559.5" y="770" as="sourcePoint" />
            <mxPoint x="559.5" y="750" as="targetPoint" />
          </mxGeometry>
        </mxCell>
        <mxCell id="W8uSDttFcf_VpxIEdMb7-38" value="(x-a)/x" style="rounded=0;whiteSpace=wrap;html=1;" vertex="1" parent="WIyWlLk6GJQsqaUBKTNV-1">
          <mxGeometry x="520" y="715" width="120" height="35" as="geometry" />
        </mxCell>
        <mxCell id="W8uSDttFcf_VpxIEdMb7-39" value="" style="endArrow=classic;html=1;" edge="1" parent="WIyWlLk6GJQsqaUBKTNV-1">
          <mxGeometry width="50" height="50" relative="1" as="geometry">
            <mxPoint x="559.5" y="672" as="sourcePoint" />
            <mxPoint x="559.5" y="715" as="targetPoint" />
          </mxGeometry>
        </mxCell>
        <mxCell id="W8uSDttFcf_VpxIEdMb7-40" value="" style="endArrow=none;html=1;" edge="1" parent="WIyWlLk6GJQsqaUBKTNV-1">
          <mxGeometry width="50" height="50" relative="1" as="geometry">
            <mxPoint x="474" y="672" as="sourcePoint" />
            <mxPoint x="560" y="673" as="targetPoint" />
          </mxGeometry>
        </mxCell>
        <mxCell id="W8uSDttFcf_VpxIEdMb7-42" value="&lt;span style=&quot;line-height: 106% ; font-family: &amp;#34;consolas&amp;#34; ; font-size: 10px&quot;&gt;&lt;font style=&quot;font-size: 10px&quot;&gt;(!(x &amp;lt; 5 &amp;amp;&amp;amp; c !=&lt;br&gt;0) &amp;amp;&amp;amp; !(x &amp;gt; 5 &amp;amp;&amp;amp; c == 0))&lt;/font&gt;&lt;/span&gt;" style="rhombus;whiteSpace=wrap;html=1;align=center;" vertex="1" parent="WIyWlLk6GJQsqaUBKTNV-1">
          <mxGeometry x="308" y="800" width="212" height="110" as="geometry" />
        </mxCell>
        <mxCell id="W8uSDttFcf_VpxIEdMb7-45" value="" style="endArrow=classic;html=1;" edge="1" parent="WIyWlLk6GJQsqaUBKTNV-1">
          <mxGeometry width="50" height="50" relative="1" as="geometry">
            <mxPoint x="580" y="854" as="sourcePoint" />
            <mxPoint x="580" y="905" as="targetPoint" />
          </mxGeometry>
        </mxCell>
        <mxCell id="W8uSDttFcf_VpxIEdMb7-46" value="&lt;span style=&quot;font-size: 9.5pt ; line-height: 106% ; font-family: &amp;#34;consolas&amp;#34;&quot;&gt;-x / c&amp;nbsp;&lt;/span&gt;" style="rounded=0;whiteSpace=wrap;html=1;" vertex="1" parent="WIyWlLk6GJQsqaUBKTNV-1">
          <mxGeometry x="520" y="905" width="120" height="35" as="geometry" />
        </mxCell>
        <mxCell id="W8uSDttFcf_VpxIEdMb7-47" value="" style="endArrow=none;html=1;" edge="1" parent="WIyWlLk6GJQsqaUBKTNV-1">
          <mxGeometry width="50" height="50" relative="1" as="geometry">
            <mxPoint x="235" y="965" as="sourcePoint" />
            <mxPoint x="580" y="965" as="targetPoint" />
          </mxGeometry>
        </mxCell>
        <mxCell id="W8uSDttFcf_VpxIEdMb7-48" value="" style="endArrow=none;html=1;" edge="1" parent="WIyWlLk6GJQsqaUBKTNV-1">
          <mxGeometry width="50" height="50" relative="1" as="geometry">
            <mxPoint x="235" y="964" as="sourcePoint" />
            <mxPoint x="235" y="854" as="targetPoint" />
          </mxGeometry>
        </mxCell>
        <mxCell id="W8uSDttFcf_VpxIEdMb7-49" value="" style="endArrow=none;html=1;" edge="1" parent="WIyWlLk6GJQsqaUBKTNV-1">
          <mxGeometry width="50" height="50" relative="1" as="geometry">
            <mxPoint x="234" y="854.5" as="sourcePoint" />
            <mxPoint x="308" y="854.5" as="targetPoint" />
          </mxGeometry>
        </mxCell>
        <mxCell id="W8uSDttFcf_VpxIEdMb7-51" value="" style="shape=image;html=1;verticalAlign=top;verticalLabelPosition=bottom;labelBackgroundColor=#ffffff;imageAspect=0;aspect=fixed;image=https://cdn4.iconfinder.com/data/icons/wirecons-free-vector-icons/32/add-128.png" vertex="1" parent="WIyWlLk6GJQsqaUBKTNV-1">
          <mxGeometry x="520" y="840" width="10" height="10" as="geometry" />
        </mxCell>
        <mxCell id="W8uSDttFcf_VpxIEdMb7-52" value="" style="shape=image;html=1;verticalAlign=top;verticalLabelPosition=bottom;labelBackgroundColor=#ffffff;imageAspect=0;aspect=fixed;image=https://cdn4.iconfinder.com/data/icons/wirecons-free-vector-icons/32/add-128.png" vertex="1" parent="WIyWlLk6GJQsqaUBKTNV-1">
          <mxGeometry x="474" y="660" width="10" height="10" as="geometry" />
        </mxCell>
        <mxCell id="W8uSDttFcf_VpxIEdMb7-54" value="" style="shape=image;html=1;verticalAlign=top;verticalLabelPosition=bottom;labelBackgroundColor=#ffffff;imageAspect=0;aspect=fixed;image=https://cdn4.iconfinder.com/data/icons/ionicons/512/icon-minus-128.png" vertex="1" parent="WIyWlLk6GJQsqaUBKTNV-1">
          <mxGeometry x="342" y="661" width="8" height="8" as="geometry" />
        </mxCell>
        <mxCell id="W8uSDttFcf_VpxIEdMb7-56" value="" style="endArrow=none;html=1;" edge="1" parent="WIyWlLk6GJQsqaUBKTNV-1">
          <mxGeometry width="50" height="50" relative="1" as="geometry">
            <mxPoint x="520" y="854.5" as="sourcePoint" />
            <mxPoint x="580" y="854.5" as="targetPoint" />
          </mxGeometry>
        </mxCell>
        <mxCell id="W8uSDttFcf_VpxIEdMb7-57" value="" style="endArrow=none;html=1;" edge="1" parent="WIyWlLk6GJQsqaUBKTNV-1">
          <mxGeometry width="50" height="50" relative="1" as="geometry">
            <mxPoint x="580" y="965" as="sourcePoint" />
            <mxPoint x="580" y="940" as="targetPoint" />
          </mxGeometry>
        </mxCell>
        <mxCell id="W8uSDttFcf_VpxIEdMb7-58" value="" style="endArrow=classic;html=1;" edge="1" parent="WIyWlLk6GJQsqaUBKTNV-1">
          <mxGeometry width="50" height="50" relative="1" as="geometry">
            <mxPoint x="414" y="965" as="sourcePoint" />
            <mxPoint x="414" y="1020" as="targetPoint" />
          </mxGeometry>
        </mxCell>
        <mxCell id="W8uSDttFcf_VpxIEdMb7-59" value="F=" style="shape=document;whiteSpace=wrap;html=1;boundedLbl=1;" vertex="1" parent="WIyWlLk6GJQsqaUBKTNV-1">
          <mxGeometry x="367" y="1020" width="94" height="50" as="geometry" />
        </mxCell>
        <mxCell id="W8uSDttFcf_VpxIEdMb7-60" value="" style="endArrow=classic;html=1;" edge="1" parent="WIyWlLk6GJQsqaUBKTNV-1">
          <mxGeometry width="50" height="50" relative="1" as="geometry">
            <mxPoint x="160" y="1271" as="sourcePoint" />
            <mxPoint x="160" y="1330" as="targetPoint" />
          </mxGeometry>
        </mxCell>
        <mxCell id="W8uSDttFcf_VpxIEdMb7-61" value="" style="endArrow=classic;html=1;" edge="1" parent="WIyWlLk6GJQsqaUBKTNV-1">
          <mxGeometry width="50" height="50" relative="1" as="geometry">
            <mxPoint x="414" y="1062" as="sourcePoint" />
            <mxPoint x="414" y="1100" as="targetPoint" />
          </mxGeometry>
        </mxCell>
        <mxCell id="W8uSDttFcf_VpxIEdMb7-62" value="x&amp;lt;5 &amp;amp;&amp;amp; c!=0" style="rhombus;whiteSpace=wrap;html=1;" vertex="1" parent="WIyWlLk6GJQsqaUBKTNV-1">
          <mxGeometry x="354" y="1100" width="120" height="65" as="geometry" />
        </mxCell>
        <mxCell id="W8uSDttFcf_VpxIEdMb7-63" value="" style="endArrow=none;html=1;" edge="1" parent="WIyWlLk6GJQsqaUBKTNV-1">
          <mxGeometry width="50" height="50" relative="1" as="geometry">
            <mxPoint x="474" y="1132" as="sourcePoint" />
            <mxPoint x="534" y="1132" as="targetPoint" />
          </mxGeometry>
        </mxCell>
        <mxCell id="W8uSDttFcf_VpxIEdMb7-64" value="" style="shape=image;html=1;verticalAlign=top;verticalLabelPosition=bottom;labelBackgroundColor=#ffffff;imageAspect=0;aspect=fixed;image=https://cdn4.iconfinder.com/data/icons/ionicons/512/icon-minus-128.png;direction=west;" vertex="1" parent="WIyWlLk6GJQsqaUBKTNV-1">
          <mxGeometry x="300" y="842" width="8" height="8" as="geometry" />
        </mxCell>
        <mxCell id="W8uSDttFcf_VpxIEdMb7-65" value="" style="endArrow=none;html=1;" edge="1" parent="WIyWlLk6GJQsqaUBKTNV-1">
          <mxGeometry width="50" height="50" relative="1" as="geometry">
            <mxPoint x="280" y="1132" as="sourcePoint" />
            <mxPoint x="354" y="1132" as="targetPoint" />
          </mxGeometry>
        </mxCell>
        <mxCell id="W8uSDttFcf_VpxIEdMb7-67" value="" style="shape=image;html=1;verticalAlign=top;verticalLabelPosition=bottom;labelBackgroundColor=#ffffff;imageAspect=0;aspect=fixed;image=https://cdn4.iconfinder.com/data/icons/wirecons-free-vector-icons/32/add-128.png" vertex="1" parent="WIyWlLk6GJQsqaUBKTNV-1">
          <mxGeometry x="474" y="1120" width="10" height="10" as="geometry" />
        </mxCell>
        <mxCell id="W8uSDttFcf_VpxIEdMb7-68" value="" style="shape=image;html=1;verticalAlign=top;verticalLabelPosition=bottom;labelBackgroundColor=#ffffff;imageAspect=0;aspect=fixed;image=https://cdn4.iconfinder.com/data/icons/ionicons/512/icon-minus-128.png" vertex="1" parent="WIyWlLk6GJQsqaUBKTNV-1">
          <mxGeometry x="346" y="1120" width="8" height="8" as="geometry" />
        </mxCell>
        <mxCell id="W8uSDttFcf_VpxIEdMb7-69" value="-a*(x*x) -b" style="rounded=0;whiteSpace=wrap;html=1;" vertex="1" parent="WIyWlLk6GJQsqaUBKTNV-1">
          <mxGeometry x="500" y="1180" width="120" height="35" as="geometry" />
        </mxCell>
        <mxCell id="W8uSDttFcf_VpxIEdMb7-70" value="" style="endArrow=classic;html=1;" edge="1" parent="WIyWlLk6GJQsqaUBKTNV-1">
          <mxGeometry width="50" height="50" relative="1" as="geometry">
            <mxPoint x="535" y="1132" as="sourcePoint" />
            <mxPoint x="535" y="1180" as="targetPoint" />
          </mxGeometry>
        </mxCell>
        <mxCell id="W8uSDttFcf_VpxIEdMb7-71" value="" style="endArrow=classic;html=1;" edge="1" parent="WIyWlLk6GJQsqaUBKTNV-1">
          <mxGeometry width="50" height="50" relative="1" as="geometry">
            <mxPoint x="279" y="1131" as="sourcePoint" />
            <mxPoint x="279" y="1240" as="targetPoint" />
          </mxGeometry>
        </mxCell>
        <mxCell id="W8uSDttFcf_VpxIEdMb7-72" value="x&amp;gt;5 &amp;amp;&amp;amp; c==0" style="rhombus;whiteSpace=wrap;html=1;" vertex="1" parent="WIyWlLk6GJQsqaUBKTNV-1">
          <mxGeometry x="220" y="1240" width="120" height="65" as="geometry" />
        </mxCell>
        <mxCell id="W8uSDttFcf_VpxIEdMb7-73" value="" style="endArrow=none;html=1;" edge="1" parent="WIyWlLk6GJQsqaUBKTNV-1">
          <mxGeometry width="50" height="50" relative="1" as="geometry">
            <mxPoint x="340" y="1272" as="sourcePoint" />
            <mxPoint x="404" y="1272" as="targetPoint" />
          </mxGeometry>
        </mxCell>
        <mxCell id="W8uSDttFcf_VpxIEdMb7-74" value="" style="endArrow=none;html=1;" edge="1" parent="WIyWlLk6GJQsqaUBKTNV-1">
          <mxGeometry width="50" height="50" relative="1" as="geometry">
            <mxPoint x="160" y="1272" as="sourcePoint" />
            <mxPoint x="220" y="1272" as="targetPoint" />
          </mxGeometry>
        </mxCell>
        <mxCell id="W8uSDttFcf_VpxIEdMb7-75" value="(x-a)/x" style="rounded=0;whiteSpace=wrap;html=1;" vertex="1" parent="WIyWlLk6GJQsqaUBKTNV-1">
          <mxGeometry x="346" y="1330" width="120" height="35" as="geometry" />
        </mxCell>
        <mxCell id="W8uSDttFcf_VpxIEdMb7-76" value="&lt;span style=&quot;font-size: 9.5pt ; line-height: 106% ; font-family: &amp;#34;consolas&amp;#34;&quot;&gt;-x / c&amp;nbsp;&lt;/span&gt;" style="rounded=0;whiteSpace=wrap;html=1;" vertex="1" parent="WIyWlLk6GJQsqaUBKTNV-1">
          <mxGeometry x="100" y="1330" width="120" height="35" as="geometry" />
        </mxCell>
        <mxCell id="W8uSDttFcf_VpxIEdMb7-78" value="" style="endArrow=classic;html=1;" edge="1" parent="WIyWlLk6GJQsqaUBKTNV-1">
          <mxGeometry width="50" height="50" relative="1" as="geometry">
            <mxPoint x="405" y="1271" as="sourcePoint" />
            <mxPoint x="405" y="1330" as="targetPoint" />
          </mxGeometry>
        </mxCell>
        <mxCell id="W8uSDttFcf_VpxIEdMb7-79" value="" style="shape=image;html=1;verticalAlign=top;verticalLabelPosition=bottom;labelBackgroundColor=#ffffff;imageAspect=0;aspect=fixed;image=https://cdn4.iconfinder.com/data/icons/wirecons-free-vector-icons/32/add-128.png;direction=south;" vertex="1" parent="WIyWlLk6GJQsqaUBKTNV-1">
          <mxGeometry x="342" y="1260" width="10" height="10" as="geometry" />
        </mxCell>
        <mxCell id="W8uSDttFcf_VpxIEdMb7-81" value="" style="shape=image;html=1;verticalAlign=top;verticalLabelPosition=bottom;labelBackgroundColor=#ffffff;imageAspect=0;aspect=fixed;image=https://cdn4.iconfinder.com/data/icons/ionicons/512/icon-minus-128.png" vertex="1" parent="WIyWlLk6GJQsqaUBKTNV-1">
          <mxGeometry x="212" y="1261" width="8" height="8" as="geometry" />
        </mxCell>
        <mxCell id="W8uSDttFcf_VpxIEdMb7-85" value="" style="strokeWidth=1;html=1;shape=mxgraph.flowchart.annotation_1;align=left;pointerEvents=1;direction=north;" vertex="1" parent="WIyWlLk6GJQsqaUBKTNV-1">
          <mxGeometry x="160" y="1365" width="244" height="70" as="geometry" />
        </mxCell>
        <mxCell id="W8uSDttFcf_VpxIEdMb7-86" value="" style="endArrow=none;html=1;" edge="1" parent="WIyWlLk6GJQsqaUBKTNV-1">
          <mxGeometry width="50" height="50" relative="1" as="geometry">
            <mxPoint x="540" y="1530" as="sourcePoint" />
            <mxPoint x="540" y="1215" as="targetPoint" />
          </mxGeometry>
        </mxCell>
        <mxCell id="W8uSDttFcf_VpxIEdMb7-87" value="" style="endArrow=none;html=1;" edge="1" parent="WIyWlLk6GJQsqaUBKTNV-1">
          <mxGeometry width="50" height="50" relative="1" as="geometry">
            <mxPoint x="280" y="1530" as="sourcePoint" />
            <mxPoint x="279.5" y="1435" as="targetPoint" />
            <Array as="points">
              <mxPoint x="279.5" y="1435" />
            </Array>
          </mxGeometry>
        </mxCell>
        <mxCell id="W8uSDttFcf_VpxIEdMb7-90" value="" style="endArrow=none;html=1;" edge="1" parent="WIyWlLk6GJQsqaUBKTNV-1">
          <mxGeometry width="50" height="50" relative="1" as="geometry">
            <mxPoint x="280" y="1530" as="sourcePoint" />
            <mxPoint x="540" y="1530" as="targetPoint" />
          </mxGeometry>
        </mxCell>
        <mxCell id="W8uSDttFcf_VpxIEdMb7-91" value="" style="endArrow=classic;html=1;" edge="1" parent="WIyWlLk6GJQsqaUBKTNV-1">
          <mxGeometry width="50" height="50" relative="1" as="geometry">
            <mxPoint x="414" y="1530" as="sourcePoint" />
            <mxPoint x="414" y="1580" as="targetPoint" />
          </mxGeometry>
        </mxCell>
        <mxCell id="W8uSDttFcf_VpxIEdMb7-92" value="F" style="shape=document;whiteSpace=wrap;html=1;boundedLbl=1;strokeWidth=1;" vertex="1" parent="WIyWlLk6GJQsqaUBKTNV-1">
          <mxGeometry x="369" y="1580" width="90" height="50" as="geometry" />
        </mxCell>
        <mxCell id="W8uSDttFcf_VpxIEdMb7-93" value="" style="endArrow=classic;html=1;" edge="1" parent="WIyWlLk6GJQsqaUBKTNV-1">
          <mxGeometry width="50" height="50" relative="1" as="geometry">
            <mxPoint x="414" y="1622" as="sourcePoint" />
            <mxPoint x="414" y="1670" as="targetPoint" />
          </mxGeometry>
        </mxCell>
        <mxCell id="W8uSDttFcf_VpxIEdMb7-94" value="Кінець" style="strokeWidth=1;html=1;shape=mxgraph.flowchart.terminator;whiteSpace=wrap;" vertex="1" parent="WIyWlLk6GJQsqaUBKTNV-1">
          <mxGeometry x="369" y="1670" width="90" height="30" as="geometry" />
        </mxCell>
      </root>
    </mxGraphModel>
  </diagram>
</mxfile>
